<mxfile host="app.diagrams.net" modified="2022-07-08T10:56:08.489Z" agent="5.0 (Windows NT 10.0; Win64; x64) AppleWebKit/537.36 (KHTML, like Gecko) Chrome/103.0.0.0 Safari/537.36" etag="NUubod1nwVzX2tjnFo0Z" version="20.0.4" type="github">
  <diagram id="QWgBJ8Pvs011CRzcQW75" name="Page-1">
    <mxGraphModel dx="2307" dy="1087" grid="1" gridSize="10" guides="1" tooltips="1" connect="1" arrows="1" fold="1" page="1" pageScale="1" pageWidth="850" pageHeight="1100" math="0" shadow="0">
      <root>
        <mxCell id="0" />
        <mxCell id="1" parent="0" />
        <mxCell id="bYUfwhUWtX8G-qfTAnMk-1" value="" style="endArrow=none;html=1;rounded=0;fontSize=27;fontStyle=0;startArrow=none;" parent="1" source="bYUfwhUWtX8G-qfTAnMk-3" edge="1">
          <mxGeometry width="50" height="50" relative="1" as="geometry">
            <mxPoint x="50" y="80" as="sourcePoint" />
            <mxPoint x="600" y="80" as="targetPoint" />
          </mxGeometry>
        </mxCell>
        <mxCell id="bYUfwhUWtX8G-qfTAnMk-8" value="||" style="edgeLabel;html=1;align=center;verticalAlign=middle;resizable=0;points=[];fontSize=27;fontStyle=0" parent="bYUfwhUWtX8G-qfTAnMk-1" vertex="1" connectable="0">
          <mxGeometry x="-0.5443" y="3" relative="1" as="geometry">
            <mxPoint as="offset" />
          </mxGeometry>
        </mxCell>
        <mxCell id="bYUfwhUWtX8G-qfTAnMk-2" value="1" style="text;html=1;align=center;verticalAlign=middle;resizable=0;points=[];autosize=1;strokeColor=none;fillColor=none;fontSize=27;fontStyle=0" parent="1" vertex="1">
          <mxGeometry y="25" width="40" height="50" as="geometry" />
        </mxCell>
        <mxCell id="bYUfwhUWtX8G-qfTAnMk-3" value="&lt;span style=&quot;font-size: 27px;&quot;&gt;[&lt;/span&gt;" style="text;html=1;align=center;verticalAlign=middle;resizable=0;points=[];autosize=1;strokeColor=none;fillColor=none;fontSize=27;fontStyle=0" parent="1" vertex="1">
          <mxGeometry x="85" y="55" width="30" height="50" as="geometry" />
        </mxCell>
        <mxCell id="bYUfwhUWtX8G-qfTAnMk-4" value="" style="endArrow=none;html=1;rounded=0;fontSize=27;fontStyle=0;entryX=0.96;entryY=0.493;entryDx=0;entryDy=0;entryPerimeter=0;" parent="1" target="bYUfwhUWtX8G-qfTAnMk-3" edge="1">
          <mxGeometry width="50" height="50" relative="1" as="geometry">
            <mxPoint x="50" y="80" as="sourcePoint" />
            <mxPoint x="490" y="80" as="targetPoint" />
          </mxGeometry>
        </mxCell>
        <mxCell id="bYUfwhUWtX8G-qfTAnMk-5" value="&lt;span style=&quot;font-size: 27px;&quot;&gt;]&lt;/span&gt;" style="text;html=1;align=center;verticalAlign=middle;resizable=0;points=[];autosize=1;strokeColor=none;fillColor=none;fontSize=27;fontStyle=0" parent="1" vertex="1">
          <mxGeometry x="315" y="55" width="30" height="50" as="geometry" />
        </mxCell>
        <mxCell id="bYUfwhUWtX8G-qfTAnMk-7" value="|" style="text;html=1;align=center;verticalAlign=middle;resizable=0;points=[];autosize=1;strokeColor=none;fillColor=none;fontSize=27;fontStyle=0" parent="1" vertex="1">
          <mxGeometry x="435" y="55" width="30" height="50" as="geometry" />
        </mxCell>
        <mxCell id="bYUfwhUWtX8G-qfTAnMk-10" value="&lt;font style=&quot;font-size: 27px;&quot;&gt;Set the corresponding bit to 1&lt;/font&gt;" style="text;html=1;align=center;verticalAlign=middle;resizable=0;points=[];autosize=1;strokeColor=none;fillColor=none;fontSize=27;fontStyle=0" parent="1" vertex="1">
          <mxGeometry x="570" y="60" width="380" height="50" as="geometry" />
        </mxCell>
        <mxCell id="bYUfwhUWtX8G-qfTAnMk-18" value="" style="endArrow=none;html=1;rounded=0;fontSize=27;fontStyle=0;startArrow=none;" parent="1" source="bYUfwhUWtX8G-qfTAnMk-21" edge="1">
          <mxGeometry width="50" height="50" relative="1" as="geometry">
            <mxPoint x="50" y="170" as="sourcePoint" />
            <mxPoint x="570" y="170" as="targetPoint" />
          </mxGeometry>
        </mxCell>
        <mxCell id="bYUfwhUWtX8G-qfTAnMk-19" value="||" style="edgeLabel;html=1;align=center;verticalAlign=middle;resizable=0;points=[];fontSize=27;fontStyle=0" parent="bYUfwhUWtX8G-qfTAnMk-18" vertex="1" connectable="0">
          <mxGeometry x="-0.5443" y="3" relative="1" as="geometry">
            <mxPoint x="185" y="3" as="offset" />
          </mxGeometry>
        </mxCell>
        <mxCell id="bYUfwhUWtX8G-qfTAnMk-20" value="2" style="text;html=1;align=center;verticalAlign=middle;resizable=0;points=[];autosize=1;strokeColor=none;fillColor=none;fontSize=27;fontStyle=0" parent="1" vertex="1">
          <mxGeometry y="115" width="40" height="50" as="geometry" />
        </mxCell>
        <mxCell id="bYUfwhUWtX8G-qfTAnMk-21" value="&lt;span style=&quot;font-size: 27px;&quot;&gt;[&lt;/span&gt;" style="text;html=1;align=center;verticalAlign=middle;resizable=0;points=[];autosize=1;strokeColor=none;fillColor=none;fontSize=27;fontStyle=0" parent="1" vertex="1">
          <mxGeometry x="85" y="145" width="30" height="50" as="geometry" />
        </mxCell>
        <mxCell id="bYUfwhUWtX8G-qfTAnMk-22" value="" style="endArrow=none;html=1;rounded=0;fontSize=27;fontStyle=0;entryX=0.96;entryY=0.493;entryDx=0;entryDy=0;entryPerimeter=0;" parent="1" target="bYUfwhUWtX8G-qfTAnMk-21" edge="1">
          <mxGeometry width="50" height="50" relative="1" as="geometry">
            <mxPoint x="50" y="170" as="sourcePoint" />
            <mxPoint x="490" y="170" as="targetPoint" />
          </mxGeometry>
        </mxCell>
        <mxCell id="bYUfwhUWtX8G-qfTAnMk-23" value="&lt;span style=&quot;font-size: 27px;&quot;&gt;]&lt;/span&gt;" style="text;html=1;align=center;verticalAlign=middle;resizable=0;points=[];autosize=1;strokeColor=none;fillColor=none;fontSize=27;fontStyle=0" parent="1" vertex="1">
          <mxGeometry x="315" y="145" width="30" height="50" as="geometry" />
        </mxCell>
        <mxCell id="bYUfwhUWtX8G-qfTAnMk-24" value="|" style="text;html=1;align=center;verticalAlign=middle;resizable=0;points=[];autosize=1;strokeColor=none;fillColor=none;fontSize=27;fontStyle=0" parent="1" vertex="1">
          <mxGeometry x="435" y="145" width="30" height="50" as="geometry" />
        </mxCell>
        <mxCell id="bYUfwhUWtX8G-qfTAnMk-26" value="Shift the transmitting window" style="text;html=1;align=center;verticalAlign=middle;resizable=0;points=[];autosize=1;strokeColor=none;fillColor=none;fontSize=27;fontStyle=0" parent="1" vertex="1">
          <mxGeometry x="570" y="140" width="370" height="50" as="geometry" />
        </mxCell>
        <mxCell id="bYUfwhUWtX8G-qfTAnMk-44" value="" style="endArrow=none;html=1;rounded=0;fontSize=27;fontStyle=0;startArrow=none;" parent="1" source="bYUfwhUWtX8G-qfTAnMk-48" edge="1">
          <mxGeometry width="50" height="50" relative="1" as="geometry">
            <mxPoint x="110" y="280" as="sourcePoint" />
            <mxPoint x="570" y="280" as="targetPoint" />
          </mxGeometry>
        </mxCell>
        <mxCell id="bYUfwhUWtX8G-qfTAnMk-47" value="" style="endArrow=none;html=1;rounded=0;fontSize=27;fontStyle=0;entryX=0.96;entryY=0.493;entryDx=0;entryDy=0;entryPerimeter=0;" parent="1" edge="1">
          <mxGeometry width="50" height="50" relative="1" as="geometry">
            <mxPoint x="50" y="280" as="sourcePoint" />
            <mxPoint x="109.19999999999982" y="279.78999999999996" as="targetPoint" />
          </mxGeometry>
        </mxCell>
        <mxCell id="bYUfwhUWtX8G-qfTAnMk-49" value="|" style="text;html=1;align=center;verticalAlign=middle;resizable=0;points=[];autosize=1;strokeColor=none;fillColor=none;fontSize=27;fontStyle=0" parent="1" vertex="1">
          <mxGeometry x="545" y="255" width="30" height="50" as="geometry" />
        </mxCell>
        <mxCell id="bYUfwhUWtX8G-qfTAnMk-50" value="Shift the transmitting window" style="text;html=1;align=center;verticalAlign=middle;resizable=0;points=[];autosize=1;strokeColor=none;fillColor=none;fontSize=27;fontStyle=0" parent="1" vertex="1">
          <mxGeometry x="570" y="250" width="370" height="50" as="geometry" />
        </mxCell>
        <mxCell id="bYUfwhUWtX8G-qfTAnMk-51" value="" style="shape=singleArrow;whiteSpace=wrap;html=1;arrowWidth=0.4;arrowSize=0.4;fontSize=27;rotation=90;fontStyle=0" parent="1" vertex="1">
          <mxGeometry x="230" y="180" width="60" height="60" as="geometry" />
        </mxCell>
        <mxCell id="bYUfwhUWtX8G-qfTAnMk-52" value="&lt;span style=&quot;font-size: 27px;&quot;&gt;[&lt;/span&gt;" style="text;html=1;align=center;verticalAlign=middle;resizable=0;points=[];autosize=1;strokeColor=none;fillColor=none;fontSize=27;fontStyle=0" parent="1" vertex="1">
          <mxGeometry x="245" y="255" width="30" height="50" as="geometry" />
        </mxCell>
        <mxCell id="bYUfwhUWtX8G-qfTAnMk-53" value="" style="endArrow=none;html=1;rounded=0;fontSize=27;fontStyle=0;startArrow=none;" parent="1" target="bYUfwhUWtX8G-qfTAnMk-52" edge="1">
          <mxGeometry width="50" height="50" relative="1" as="geometry">
            <mxPoint x="110" y="280" as="sourcePoint" />
            <mxPoint x="570" y="280" as="targetPoint" />
          </mxGeometry>
        </mxCell>
        <mxCell id="bYUfwhUWtX8G-qfTAnMk-54" value="||" style="edgeLabel;html=1;align=center;verticalAlign=middle;resizable=0;points=[];fontSize=27;fontStyle=0" parent="bYUfwhUWtX8G-qfTAnMk-53" vertex="1" connectable="0">
          <mxGeometry x="-0.5443" y="3" relative="1" as="geometry">
            <mxPoint x="318" y="3" as="offset" />
          </mxGeometry>
        </mxCell>
        <mxCell id="bYUfwhUWtX8G-qfTAnMk-48" value="&lt;span style=&quot;font-size: 27px;&quot;&gt;]&lt;/span&gt;" style="text;html=1;align=center;verticalAlign=middle;resizable=0;points=[];autosize=1;strokeColor=none;fillColor=none;fontSize=27;fontStyle=0" parent="1" vertex="1">
          <mxGeometry x="455" y="255" width="30" height="50" as="geometry" />
        </mxCell>
        <mxCell id="bYUfwhUWtX8G-qfTAnMk-55" value="" style="endArrow=none;html=1;rounded=0;fontSize=27;fontStyle=0;startArrow=none;" parent="1" source="bYUfwhUWtX8G-qfTAnMk-52" target="bYUfwhUWtX8G-qfTAnMk-48" edge="1">
          <mxGeometry width="50" height="50" relative="1" as="geometry">
            <mxPoint x="270" y="280" as="sourcePoint" />
            <mxPoint x="570" y="280" as="targetPoint" />
          </mxGeometry>
        </mxCell>
        <mxCell id="bYUfwhUWtX8G-qfTAnMk-64" value="" style="endArrow=none;html=1;rounded=0;fontSize=27;fontStyle=0;startArrow=none;" parent="1" source="bYUfwhUWtX8G-qfTAnMk-67" edge="1">
          <mxGeometry width="50" height="50" relative="1" as="geometry">
            <mxPoint x="50" y="400" as="sourcePoint" />
            <mxPoint x="570" y="400" as="targetPoint" />
          </mxGeometry>
        </mxCell>
        <mxCell id="bYUfwhUWtX8G-qfTAnMk-65" value="||" style="edgeLabel;html=1;align=center;verticalAlign=middle;resizable=0;points=[];fontSize=27;fontStyle=0" parent="bYUfwhUWtX8G-qfTAnMk-64" vertex="1" connectable="0">
          <mxGeometry x="-0.5443" y="3" relative="1" as="geometry">
            <mxPoint x="285" y="3" as="offset" />
          </mxGeometry>
        </mxCell>
        <mxCell id="bYUfwhUWtX8G-qfTAnMk-66" value="3" style="text;html=1;align=center;verticalAlign=middle;resizable=0;points=[];autosize=1;strokeColor=none;fillColor=none;fontSize=27;fontStyle=0" parent="1" vertex="1">
          <mxGeometry y="345" width="40" height="50" as="geometry" />
        </mxCell>
        <mxCell id="bYUfwhUWtX8G-qfTAnMk-67" value="&lt;span style=&quot;font-size: 27px;&quot;&gt;[&lt;/span&gt;" style="text;html=1;align=center;verticalAlign=middle;resizable=0;points=[];autosize=1;strokeColor=none;fillColor=none;fontSize=27;fontStyle=0" parent="1" vertex="1">
          <mxGeometry x="85" y="375" width="30" height="50" as="geometry" />
        </mxCell>
        <mxCell id="bYUfwhUWtX8G-qfTAnMk-68" value="" style="endArrow=none;html=1;rounded=0;fontSize=27;fontStyle=0;entryX=0.96;entryY=0.493;entryDx=0;entryDy=0;entryPerimeter=0;" parent="1" target="bYUfwhUWtX8G-qfTAnMk-67" edge="1">
          <mxGeometry width="50" height="50" relative="1" as="geometry">
            <mxPoint x="50" y="400" as="sourcePoint" />
            <mxPoint x="490" y="400" as="targetPoint" />
          </mxGeometry>
        </mxCell>
        <mxCell id="bYUfwhUWtX8G-qfTAnMk-69" value="&lt;span style=&quot;font-size: 27px;&quot;&gt;]&lt;/span&gt;" style="text;html=1;align=center;verticalAlign=middle;resizable=0;points=[];autosize=1;strokeColor=none;fillColor=none;fontSize=27;fontStyle=0" parent="1" vertex="1">
          <mxGeometry x="315" y="375" width="30" height="50" as="geometry" />
        </mxCell>
        <mxCell id="bYUfwhUWtX8G-qfTAnMk-70" value="|" style="text;html=1;align=center;verticalAlign=middle;resizable=0;points=[];autosize=1;strokeColor=none;fillColor=none;fontSize=27;fontStyle=0" parent="1" vertex="1">
          <mxGeometry x="435" y="375" width="30" height="50" as="geometry" />
        </mxCell>
        <mxCell id="bYUfwhUWtX8G-qfTAnMk-71" value="Ignore the frame" style="text;html=1;align=center;verticalAlign=middle;resizable=0;points=[];autosize=1;strokeColor=none;fillColor=none;fontSize=27;fontStyle=0" parent="1" vertex="1">
          <mxGeometry x="645" y="370" width="220" height="50" as="geometry" />
        </mxCell>
        <mxCell id="bYUfwhUWtX8G-qfTAnMk-80" value="" style="endArrow=none;html=1;rounded=0;fontSize=27;fontStyle=0;startArrow=none;" parent="1" source="bYUfwhUWtX8G-qfTAnMk-83" edge="1">
          <mxGeometry width="50" height="50" relative="1" as="geometry">
            <mxPoint x="50" y="530" as="sourcePoint" />
            <mxPoint x="570" y="530" as="targetPoint" />
          </mxGeometry>
        </mxCell>
        <mxCell id="bYUfwhUWtX8G-qfTAnMk-81" value="||" style="edgeLabel;html=1;align=center;verticalAlign=middle;resizable=0;points=[];fontSize=27;fontStyle=0" parent="bYUfwhUWtX8G-qfTAnMk-80" vertex="1" connectable="0">
          <mxGeometry x="-0.5443" y="3" relative="1" as="geometry">
            <mxPoint x="-145" y="3" as="offset" />
          </mxGeometry>
        </mxCell>
        <mxCell id="bYUfwhUWtX8G-qfTAnMk-82" value="4" style="text;html=1;align=center;verticalAlign=middle;resizable=0;points=[];autosize=1;strokeColor=none;fillColor=none;fontSize=27;fontStyle=0" parent="1" vertex="1">
          <mxGeometry y="475" width="40" height="50" as="geometry" />
        </mxCell>
        <mxCell id="bYUfwhUWtX8G-qfTAnMk-83" value="&lt;span style=&quot;font-size: 27px;&quot;&gt;[&lt;/span&gt;" style="text;html=1;align=center;verticalAlign=middle;resizable=0;points=[];autosize=1;strokeColor=none;fillColor=none;fontSize=27;fontStyle=0" parent="1" vertex="1">
          <mxGeometry x="85" y="505" width="30" height="50" as="geometry" />
        </mxCell>
        <mxCell id="bYUfwhUWtX8G-qfTAnMk-84" value="" style="endArrow=none;html=1;rounded=0;fontSize=27;fontStyle=0;entryX=0.96;entryY=0.493;entryDx=0;entryDy=0;entryPerimeter=0;" parent="1" target="bYUfwhUWtX8G-qfTAnMk-83" edge="1">
          <mxGeometry width="50" height="50" relative="1" as="geometry">
            <mxPoint x="50" y="530" as="sourcePoint" />
            <mxPoint x="490" y="530" as="targetPoint" />
          </mxGeometry>
        </mxCell>
        <mxCell id="bYUfwhUWtX8G-qfTAnMk-85" value="&lt;span style=&quot;font-size: 27px;&quot;&gt;]&lt;/span&gt;" style="text;html=1;align=center;verticalAlign=middle;resizable=0;points=[];autosize=1;strokeColor=none;fillColor=none;fontSize=27;fontStyle=0" parent="1" vertex="1">
          <mxGeometry x="315" y="505" width="30" height="50" as="geometry" />
        </mxCell>
        <mxCell id="bYUfwhUWtX8G-qfTAnMk-86" value="|" style="text;html=1;align=center;verticalAlign=middle;resizable=0;points=[];autosize=1;strokeColor=none;fillColor=none;fontSize=27;fontStyle=0" parent="1" vertex="1">
          <mxGeometry x="435" y="505" width="30" height="50" as="geometry" />
        </mxCell>
        <mxCell id="bYUfwhUWtX8G-qfTAnMk-87" value="Ignore the frame" style="text;html=1;align=center;verticalAlign=middle;resizable=0;points=[];autosize=1;strokeColor=none;fillColor=none;fontSize=27;fontStyle=0" parent="1" vertex="1">
          <mxGeometry x="645" y="500" width="220" height="50" as="geometry" />
        </mxCell>
        <mxCell id="bYUfwhUWtX8G-qfTAnMk-95" value="" style="endArrow=none;html=1;rounded=0;fontSize=27;fontStyle=0;startArrow=none;" parent="1" source="bYUfwhUWtX8G-qfTAnMk-98" edge="1">
          <mxGeometry width="50" height="50" relative="1" as="geometry">
            <mxPoint x="50" y="630" as="sourcePoint" />
            <mxPoint x="570" y="630" as="targetPoint" />
          </mxGeometry>
        </mxCell>
        <mxCell id="bYUfwhUWtX8G-qfTAnMk-97" value="5" style="text;html=1;align=center;verticalAlign=middle;resizable=0;points=[];autosize=1;strokeColor=none;fillColor=none;fontSize=27;fontStyle=0" parent="1" vertex="1">
          <mxGeometry y="575" width="40" height="50" as="geometry" />
        </mxCell>
        <mxCell id="bYUfwhUWtX8G-qfTAnMk-100" value="&lt;span style=&quot;font-size: 27px;&quot;&gt;]&lt;/span&gt;" style="text;html=1;align=center;verticalAlign=middle;resizable=0;points=[];autosize=1;strokeColor=none;fillColor=none;fontSize=27;fontStyle=0" parent="1" vertex="1">
          <mxGeometry x="495" y="605" width="30" height="50" as="geometry" />
        </mxCell>
        <mxCell id="bYUfwhUWtX8G-qfTAnMk-101" value="|" style="text;html=1;align=center;verticalAlign=middle;resizable=0;points=[];autosize=1;strokeColor=none;fillColor=none;fontSize=27;fontStyle=0" parent="1" vertex="1">
          <mxGeometry x="135" y="605" width="30" height="50" as="geometry" />
        </mxCell>
        <mxCell id="bYUfwhUWtX8G-qfTAnMk-103" value="Set the corresponding bit to 1" style="text;html=1;align=center;verticalAlign=middle;resizable=0;points=[];autosize=1;strokeColor=none;fillColor=none;fontSize=27;fontStyle=0" parent="1" vertex="1">
          <mxGeometry x="571" y="605" width="380" height="50" as="geometry" />
        </mxCell>
        <mxCell id="bYUfwhUWtX8G-qfTAnMk-108" value="" style="endArrow=none;html=1;rounded=0;fontSize=27;fontStyle=0;startArrow=none;" parent="1" edge="1">
          <mxGeometry width="50" height="50" relative="1" as="geometry">
            <mxPoint x="50" y="739.9999999999998" as="sourcePoint" />
            <mxPoint x="570" y="739.9999999999998" as="targetPoint" />
          </mxGeometry>
        </mxCell>
        <mxCell id="bYUfwhUWtX8G-qfTAnMk-109" value="||" style="edgeLabel;html=1;align=center;verticalAlign=middle;resizable=0;points=[];fontSize=27;fontStyle=0" parent="bYUfwhUWtX8G-qfTAnMk-108" vertex="1" connectable="0">
          <mxGeometry x="-0.5443" y="3" relative="1" as="geometry">
            <mxPoint x="371" y="3" as="offset" />
          </mxGeometry>
        </mxCell>
        <mxCell id="bYUfwhUWtX8G-qfTAnMk-110" value="6" style="text;html=1;align=center;verticalAlign=middle;resizable=0;points=[];autosize=1;strokeColor=none;fillColor=none;fontSize=27;fontStyle=0" parent="1" vertex="1">
          <mxGeometry y="685" width="40" height="50" as="geometry" />
        </mxCell>
        <mxCell id="bYUfwhUWtX8G-qfTAnMk-111" value="&lt;span style=&quot;font-size: 27px;&quot;&gt;[&lt;/span&gt;" style="text;html=1;align=center;verticalAlign=middle;resizable=0;points=[];autosize=1;strokeColor=none;fillColor=none;fontSize=27;fontStyle=0" parent="1" vertex="1">
          <mxGeometry x="285" y="715" width="30" height="50" as="geometry" />
        </mxCell>
        <mxCell id="bYUfwhUWtX8G-qfTAnMk-112" value="&lt;span style=&quot;font-size: 27px;&quot;&gt;]&lt;/span&gt;" style="text;html=1;align=center;verticalAlign=middle;resizable=0;points=[];autosize=1;strokeColor=none;fillColor=none;fontSize=27;fontStyle=0" parent="1" vertex="1">
          <mxGeometry x="495" y="715" width="30" height="50" as="geometry" />
        </mxCell>
        <mxCell id="bYUfwhUWtX8G-qfTAnMk-113" value="|" style="text;html=1;align=center;verticalAlign=middle;resizable=0;points=[];autosize=1;strokeColor=none;fillColor=none;fontSize=27;fontStyle=0" parent="1" vertex="1">
          <mxGeometry x="135" y="715" width="30" height="50" as="geometry" />
        </mxCell>
        <mxCell id="bYUfwhUWtX8G-qfTAnMk-115" value="or&amp;nbsp;" style="text;html=1;align=center;verticalAlign=middle;resizable=0;points=[];autosize=1;strokeColor=none;fillColor=none;fontSize=27;fontStyle=0" parent="1" vertex="1">
          <mxGeometry x="580" y="715" width="60" height="50" as="geometry" />
        </mxCell>
        <mxCell id="bYUfwhUWtX8G-qfTAnMk-123" value="" style="endArrow=none;html=1;rounded=0;fontSize=27;fontStyle=0;startArrow=none;" parent="1" edge="1">
          <mxGeometry width="50" height="50" relative="1" as="geometry">
            <mxPoint x="640" y="744.9999999999998" as="sourcePoint" />
            <mxPoint x="1160" y="744.9999999999998" as="targetPoint" />
          </mxGeometry>
        </mxCell>
        <mxCell id="bYUfwhUWtX8G-qfTAnMk-124" value="||" style="edgeLabel;html=1;align=center;verticalAlign=middle;resizable=0;points=[];fontSize=27;fontStyle=0" parent="bYUfwhUWtX8G-qfTAnMk-123" vertex="1" connectable="0">
          <mxGeometry x="-0.5443" y="3" relative="1" as="geometry">
            <mxPoint x="-69" y="3" as="offset" />
          </mxGeometry>
        </mxCell>
        <mxCell id="bYUfwhUWtX8G-qfTAnMk-126" value="&lt;span style=&quot;font-size: 27px;&quot;&gt;[&lt;/span&gt;" style="text;html=1;align=center;verticalAlign=middle;resizable=0;points=[];autosize=1;strokeColor=none;fillColor=none;fontSize=27;fontStyle=0" parent="1" vertex="1">
          <mxGeometry x="875" y="720" width="30" height="50" as="geometry" />
        </mxCell>
        <mxCell id="bYUfwhUWtX8G-qfTAnMk-127" value="&lt;span style=&quot;font-size: 27px;&quot;&gt;]&lt;/span&gt;" style="text;html=1;align=center;verticalAlign=middle;resizable=0;points=[];autosize=1;strokeColor=none;fillColor=none;fontSize=27;fontStyle=0" parent="1" vertex="1">
          <mxGeometry x="1085" y="720" width="30" height="50" as="geometry" />
        </mxCell>
        <mxCell id="bYUfwhUWtX8G-qfTAnMk-128" value="|" style="text;html=1;align=center;verticalAlign=middle;resizable=0;points=[];autosize=1;strokeColor=none;fillColor=none;fontSize=27;fontStyle=0" parent="1" vertex="1">
          <mxGeometry x="725" y="720" width="30" height="50" as="geometry" />
        </mxCell>
        <mxCell id="bYUfwhUWtX8G-qfTAnMk-129" value="Shift the transmitting window" style="text;html=1;align=center;verticalAlign=middle;resizable=0;points=[];autosize=1;strokeColor=none;fillColor=none;fontSize=27;fontStyle=0" parent="1" vertex="1">
          <mxGeometry x="1166" y="720" width="370" height="50" as="geometry" />
        </mxCell>
        <mxCell id="bYUfwhUWtX8G-qfTAnMk-98" value="&lt;span style=&quot;font-size: 27px;&quot;&gt;[&lt;/span&gt;" style="text;html=1;align=center;verticalAlign=middle;resizable=0;points=[];autosize=1;strokeColor=none;fillColor=none;fontSize=27;fontStyle=0" parent="1" vertex="1">
          <mxGeometry x="285" y="605" width="30" height="50" as="geometry" />
        </mxCell>
        <mxCell id="bYUfwhUWtX8G-qfTAnMk-132" value="" style="endArrow=none;html=1;rounded=0;fontSize=27;fontStyle=0;startArrow=none;" parent="1" target="bYUfwhUWtX8G-qfTAnMk-98" edge="1">
          <mxGeometry width="50" height="50" relative="1" as="geometry">
            <mxPoint x="50" y="629.9999999999998" as="sourcePoint" />
            <mxPoint x="570" y="629.9999999999998" as="targetPoint" />
          </mxGeometry>
        </mxCell>
        <mxCell id="bYUfwhUWtX8G-qfTAnMk-133" value="||" style="edgeLabel;html=1;align=center;verticalAlign=middle;resizable=0;points=[];fontSize=27;fontStyle=0" parent="bYUfwhUWtX8G-qfTAnMk-132" vertex="1" connectable="0">
          <mxGeometry x="-0.5443" y="3" relative="1" as="geometry">
            <mxPoint x="231" y="3" as="offset" />
          </mxGeometry>
        </mxCell>
        <mxCell id="bYUfwhUWtX8G-qfTAnMk-134" value="" style="shape=singleArrow;whiteSpace=wrap;html=1;arrowWidth=0.4;arrowSize=0.4;fontSize=27;rotation=90;fontStyle=0" parent="1" vertex="1">
          <mxGeometry x="570" y="810" width="60" height="60" as="geometry" />
        </mxCell>
        <mxCell id="bYUfwhUWtX8G-qfTAnMk-135" value="" style="endArrow=none;html=1;rounded=0;fontSize=27;fontStyle=0;startArrow=none;" parent="1" source="bYUfwhUWtX8G-qfTAnMk-138" edge="1">
          <mxGeometry width="50" height="50" relative="1" as="geometry">
            <mxPoint x="50" y="949.9999999999998" as="sourcePoint" />
            <mxPoint x="570" y="949.9999999999998" as="targetPoint" />
          </mxGeometry>
        </mxCell>
        <mxCell id="bYUfwhUWtX8G-qfTAnMk-139" value="|" style="text;html=1;align=center;verticalAlign=middle;resizable=0;points=[];autosize=1;strokeColor=none;fillColor=none;fontSize=27;fontStyle=0" parent="1" vertex="1">
          <mxGeometry x="185" y="920" width="30" height="50" as="geometry" />
        </mxCell>
        <mxCell id="bYUfwhUWtX8G-qfTAnMk-140" value="" style="endArrow=none;html=1;rounded=0;fontSize=27;fontStyle=0;startArrow=none;" parent="1" target="bYUfwhUWtX8G-qfTAnMk-139" edge="1">
          <mxGeometry width="50" height="50" relative="1" as="geometry">
            <mxPoint x="50" y="949.9999999999998" as="sourcePoint" />
            <mxPoint x="570" y="949.9999999999998" as="targetPoint" />
          </mxGeometry>
        </mxCell>
        <mxCell id="bYUfwhUWtX8G-qfTAnMk-141" value="||" style="edgeLabel;html=1;align=center;verticalAlign=middle;resizable=0;points=[];fontSize=27;fontStyle=0" parent="bYUfwhUWtX8G-qfTAnMk-140" vertex="1" connectable="0">
          <mxGeometry x="-0.5443" y="3" relative="1" as="geometry">
            <mxPoint x="491" y="4" as="offset" />
          </mxGeometry>
        </mxCell>
        <mxCell id="bYUfwhUWtX8G-qfTAnMk-137" value="&lt;span style=&quot;font-size: 27px;&quot;&gt;[&lt;/span&gt;" style="text;html=1;align=center;verticalAlign=middle;resizable=0;points=[];autosize=1;strokeColor=none;fillColor=none;fontSize=27;fontStyle=0" parent="1" vertex="1">
          <mxGeometry x="355" y="925" width="30" height="50" as="geometry" />
        </mxCell>
        <mxCell id="bYUfwhUWtX8G-qfTAnMk-145" value="" style="endArrow=none;html=1;rounded=0;fontSize=27;fontStyle=0;startArrow=none;" parent="1" source="bYUfwhUWtX8G-qfTAnMk-139" target="bYUfwhUWtX8G-qfTAnMk-137" edge="1">
          <mxGeometry width="50" height="50" relative="1" as="geometry">
            <mxPoint x="110" y="945.1063829787233" as="sourcePoint" />
            <mxPoint x="570" y="949.9999999999998" as="targetPoint" />
          </mxGeometry>
        </mxCell>
        <mxCell id="bYUfwhUWtX8G-qfTAnMk-138" value="&lt;span style=&quot;font-size: 27px;&quot;&gt;]&lt;/span&gt;" style="text;html=1;align=center;verticalAlign=middle;resizable=0;points=[];autosize=1;strokeColor=none;fillColor=none;fontSize=27;fontStyle=0" parent="1" vertex="1">
          <mxGeometry x="545" y="925" width="30" height="50" as="geometry" />
        </mxCell>
        <mxCell id="bYUfwhUWtX8G-qfTAnMk-146" value="" style="endArrow=none;html=1;rounded=0;fontSize=27;fontStyle=0;startArrow=none;" parent="1" source="bYUfwhUWtX8G-qfTAnMk-137" target="bYUfwhUWtX8G-qfTAnMk-138" edge="1">
          <mxGeometry width="50" height="50" relative="1" as="geometry">
            <mxPoint x="380" y="949.9999999999998" as="sourcePoint" />
            <mxPoint x="570" y="949.9999999999998" as="targetPoint" />
          </mxGeometry>
        </mxCell>
        <mxCell id="bYUfwhUWtX8G-qfTAnMk-148" value="" style="endArrow=none;html=1;rounded=0;fontSize=27;fontStyle=0;startArrow=none;" parent="1" source="bYUfwhUWtX8G-qfTAnMk-150" edge="1">
          <mxGeometry width="50" height="50" relative="1" as="geometry">
            <mxPoint x="640" y="944.9999999999998" as="sourcePoint" />
            <mxPoint x="1170" y="950" as="targetPoint" />
          </mxGeometry>
        </mxCell>
        <mxCell id="bYUfwhUWtX8G-qfTAnMk-151" value="&lt;span style=&quot;font-size: 27px;&quot;&gt;]&lt;/span&gt;" style="text;html=1;align=center;verticalAlign=middle;resizable=0;points=[];autosize=1;strokeColor=none;fillColor=none;fontSize=27;fontStyle=0" parent="1" vertex="1">
          <mxGeometry x="675" y="920" width="30" height="50" as="geometry" />
        </mxCell>
        <mxCell id="bYUfwhUWtX8G-qfTAnMk-152" value="|" style="text;html=1;align=center;verticalAlign=middle;resizable=0;points=[];autosize=1;strokeColor=none;fillColor=none;fontSize=27;fontStyle=0" parent="1" vertex="1">
          <mxGeometry x="875" y="920" width="30" height="50" as="geometry" />
        </mxCell>
        <mxCell id="bYUfwhUWtX8G-qfTAnMk-150" value="&lt;span style=&quot;font-size: 27px;&quot;&gt;[&lt;/span&gt;" style="text;html=1;align=center;verticalAlign=middle;resizable=0;points=[];autosize=1;strokeColor=none;fillColor=none;fontSize=27;fontStyle=0" parent="1" vertex="1">
          <mxGeometry x="1095" y="925" width="30" height="50" as="geometry" />
        </mxCell>
        <mxCell id="bYUfwhUWtX8G-qfTAnMk-153" value="" style="endArrow=none;html=1;rounded=0;fontSize=27;fontStyle=0;startArrow=none;" parent="1" target="bYUfwhUWtX8G-qfTAnMk-150" edge="1">
          <mxGeometry width="50" height="50" relative="1" as="geometry">
            <mxPoint x="640" y="944.9999999999998" as="sourcePoint" />
            <mxPoint x="1160" y="944.9999999999998" as="targetPoint" />
          </mxGeometry>
        </mxCell>
        <mxCell id="bYUfwhUWtX8G-qfTAnMk-154" value="||" style="edgeLabel;html=1;align=center;verticalAlign=middle;resizable=0;points=[];fontSize=27;fontStyle=0" parent="bYUfwhUWtX8G-qfTAnMk-153" vertex="1" connectable="0">
          <mxGeometry x="-0.5443" y="3" relative="1" as="geometry">
            <mxPoint x="-69" y="3" as="offset" />
          </mxGeometry>
        </mxCell>
        <mxCell id="bYUfwhUWtX8G-qfTAnMk-162" value="Set the corresponding bit to 1" style="text;html=1;align=center;verticalAlign=middle;resizable=0;points=[];autosize=1;strokeColor=none;fillColor=none;fontSize=27;fontStyle=0" parent="1" vertex="1">
          <mxGeometry x="1170" y="930" width="380" height="50" as="geometry" />
        </mxCell>
        <mxCell id="bYUfwhUWtX8G-qfTAnMk-167" value="" style="endArrow=none;html=1;rounded=0;fontSize=27;fontStyle=0;startArrow=none;" parent="1" source="bYUfwhUWtX8G-qfTAnMk-172" edge="1">
          <mxGeometry width="50" height="50" relative="1" as="geometry">
            <mxPoint x="70" y="1130" as="sourcePoint" />
            <mxPoint x="590" y="1130" as="targetPoint" />
          </mxGeometry>
        </mxCell>
        <mxCell id="bYUfwhUWtX8G-qfTAnMk-168" value="7" style="text;html=1;align=center;verticalAlign=middle;resizable=0;points=[];autosize=1;strokeColor=none;fillColor=none;fontSize=27;fontStyle=0" parent="1" vertex="1">
          <mxGeometry x="20" y="1075" width="40" height="50" as="geometry" />
        </mxCell>
        <mxCell id="bYUfwhUWtX8G-qfTAnMk-169" value="&lt;span style=&quot;font-size: 27px;&quot;&gt;]&lt;/span&gt;" style="text;html=1;align=center;verticalAlign=middle;resizable=0;points=[];autosize=1;strokeColor=none;fillColor=none;fontSize=27;fontStyle=0" parent="1" vertex="1">
          <mxGeometry x="515" y="1105" width="30" height="50" as="geometry" />
        </mxCell>
        <mxCell id="bYUfwhUWtX8G-qfTAnMk-170" value="|" style="text;html=1;align=center;verticalAlign=middle;resizable=0;points=[];autosize=1;strokeColor=none;fillColor=none;fontSize=27;fontStyle=0" parent="1" vertex="1">
          <mxGeometry x="155" y="1105" width="30" height="50" as="geometry" />
        </mxCell>
        <mxCell id="bYUfwhUWtX8G-qfTAnMk-171" value="Ignore the Frame" style="text;html=1;align=center;verticalAlign=middle;resizable=0;points=[];autosize=1;strokeColor=none;fillColor=none;fontSize=27;fontStyle=0" parent="1" vertex="1">
          <mxGeometry x="680" y="1100" width="230" height="50" as="geometry" />
        </mxCell>
        <mxCell id="bYUfwhUWtX8G-qfTAnMk-172" value="&lt;span style=&quot;font-size: 27px;&quot;&gt;[&lt;/span&gt;" style="text;html=1;align=center;verticalAlign=middle;resizable=0;points=[];autosize=1;strokeColor=none;fillColor=none;fontSize=27;fontStyle=0" parent="1" vertex="1">
          <mxGeometry x="305" y="1105" width="30" height="50" as="geometry" />
        </mxCell>
        <mxCell id="bYUfwhUWtX8G-qfTAnMk-173" value="" style="endArrow=none;html=1;rounded=0;fontSize=27;fontStyle=0;startArrow=none;" parent="1" target="bYUfwhUWtX8G-qfTAnMk-172" edge="1">
          <mxGeometry width="50" height="50" relative="1" as="geometry">
            <mxPoint x="70" y="1129.9999999999998" as="sourcePoint" />
            <mxPoint x="590" y="1129.9999999999998" as="targetPoint" />
          </mxGeometry>
        </mxCell>
        <mxCell id="bYUfwhUWtX8G-qfTAnMk-174" value="||" style="edgeLabel;html=1;align=center;verticalAlign=middle;resizable=0;points=[];fontSize=27;fontStyle=0" parent="bYUfwhUWtX8G-qfTAnMk-173" vertex="1" connectable="0">
          <mxGeometry x="-0.5443" y="3" relative="1" as="geometry">
            <mxPoint x="136" y="3" as="offset" />
          </mxGeometry>
        </mxCell>
        <mxCell id="bYUfwhUWtX8G-qfTAnMk-175" value="" style="endArrow=none;html=1;rounded=0;fontSize=27;fontStyle=0;startArrow=none;" parent="1" source="bYUfwhUWtX8G-qfTAnMk-180" edge="1">
          <mxGeometry width="50" height="50" relative="1" as="geometry">
            <mxPoint x="70" y="1230" as="sourcePoint" />
            <mxPoint x="590" y="1229.9999999999998" as="targetPoint" />
          </mxGeometry>
        </mxCell>
        <mxCell id="bYUfwhUWtX8G-qfTAnMk-176" value="8" style="text;html=1;align=center;verticalAlign=middle;resizable=0;points=[];autosize=1;strokeColor=none;fillColor=none;fontSize=27;fontStyle=0" parent="1" vertex="1">
          <mxGeometry x="20" y="1175" width="40" height="50" as="geometry" />
        </mxCell>
        <mxCell id="bYUfwhUWtX8G-qfTAnMk-177" value="&lt;span style=&quot;font-size: 27px;&quot;&gt;]&lt;/span&gt;" style="text;html=1;align=center;verticalAlign=middle;resizable=0;points=[];autosize=1;strokeColor=none;fillColor=none;fontSize=27;fontStyle=0" parent="1" vertex="1">
          <mxGeometry x="175" y="1205" width="30" height="50" as="geometry" />
        </mxCell>
        <mxCell id="bYUfwhUWtX8G-qfTAnMk-178" value="|" style="text;html=1;align=center;verticalAlign=middle;resizable=0;points=[];autosize=1;strokeColor=none;fillColor=none;fontSize=27;fontStyle=0" parent="1" vertex="1">
          <mxGeometry x="345" y="1205" width="30" height="50" as="geometry" />
        </mxCell>
        <mxCell id="bYUfwhUWtX8G-qfTAnMk-180" value="&lt;span style=&quot;font-size: 27px;&quot;&gt;[&lt;/span&gt;" style="text;html=1;align=center;verticalAlign=middle;resizable=0;points=[];autosize=1;strokeColor=none;fillColor=none;fontSize=27;fontStyle=0" parent="1" vertex="1">
          <mxGeometry x="495" y="1205" width="30" height="50" as="geometry" />
        </mxCell>
        <mxCell id="bYUfwhUWtX8G-qfTAnMk-181" value="" style="endArrow=none;html=1;rounded=0;fontSize=27;fontStyle=0;startArrow=none;" parent="1" target="bYUfwhUWtX8G-qfTAnMk-180" edge="1">
          <mxGeometry width="50" height="50" relative="1" as="geometry">
            <mxPoint x="70" y="1229.9999999999998" as="sourcePoint" />
            <mxPoint x="590" y="1229.9999999999998" as="targetPoint" />
          </mxGeometry>
        </mxCell>
        <mxCell id="bYUfwhUWtX8G-qfTAnMk-182" value="||" style="edgeLabel;html=1;align=center;verticalAlign=middle;resizable=0;points=[];fontSize=27;fontStyle=0" parent="bYUfwhUWtX8G-qfTAnMk-181" vertex="1" connectable="0">
          <mxGeometry x="-0.5443" y="3" relative="1" as="geometry">
            <mxPoint x="392" y="3" as="offset" />
          </mxGeometry>
        </mxCell>
        <mxCell id="bYUfwhUWtX8G-qfTAnMk-183" value="or" style="text;html=1;align=center;verticalAlign=middle;resizable=0;points=[];autosize=1;strokeColor=none;fillColor=none;fontSize=27;fontStyle=0" parent="1" vertex="1">
          <mxGeometry x="620" y="1205" width="50" height="50" as="geometry" />
        </mxCell>
        <mxCell id="bYUfwhUWtX8G-qfTAnMk-208" value="" style="endArrow=none;html=1;rounded=0;fontSize=27;fontStyle=0;startArrow=none;" parent="1" source="bYUfwhUWtX8G-qfTAnMk-213" edge="1">
          <mxGeometry width="50" height="50" relative="1" as="geometry">
            <mxPoint x="710" y="1225" as="sourcePoint" />
            <mxPoint x="1230" y="1224.9999999999998" as="targetPoint" />
          </mxGeometry>
        </mxCell>
        <mxCell id="bYUfwhUWtX8G-qfTAnMk-210" value="&lt;span style=&quot;font-size: 27px;&quot;&gt;]&lt;/span&gt;" style="text;html=1;align=center;verticalAlign=middle;resizable=0;points=[];autosize=1;strokeColor=none;fillColor=none;fontSize=27;fontStyle=0" parent="1" vertex="1">
          <mxGeometry x="755" y="1200" width="30" height="50" as="geometry" />
        </mxCell>
        <mxCell id="bYUfwhUWtX8G-qfTAnMk-212" value="Set the corresponding bit to 1" style="text;html=1;align=center;verticalAlign=middle;resizable=0;points=[];autosize=1;strokeColor=none;fillColor=none;fontSize=27;fontStyle=0" parent="1" vertex="1">
          <mxGeometry x="1245" y="1195" width="380" height="50" as="geometry" />
        </mxCell>
        <mxCell id="bYUfwhUWtX8G-qfTAnMk-213" value="&lt;span style=&quot;font-size: 27px;&quot;&gt;[&lt;/span&gt;" style="text;html=1;align=center;verticalAlign=middle;resizable=0;points=[];autosize=1;strokeColor=none;fillColor=none;fontSize=27;fontStyle=0" parent="1" vertex="1">
          <mxGeometry x="1145" y="1200" width="30" height="50" as="geometry" />
        </mxCell>
        <mxCell id="bYUfwhUWtX8G-qfTAnMk-214" value="" style="endArrow=none;html=1;rounded=0;fontSize=27;fontStyle=0;startArrow=none;" parent="1" source="bYUfwhUWtX8G-qfTAnMk-211" target="bYUfwhUWtX8G-qfTAnMk-213" edge="1">
          <mxGeometry width="50" height="50" relative="1" as="geometry">
            <mxPoint x="710" y="1224.9999999999998" as="sourcePoint" />
            <mxPoint x="1230" y="1224.9999999999998" as="targetPoint" />
          </mxGeometry>
        </mxCell>
        <mxCell id="bYUfwhUWtX8G-qfTAnMk-211" value="|" style="text;html=1;align=center;verticalAlign=middle;resizable=0;points=[];autosize=1;strokeColor=none;fillColor=none;fontSize=27;fontStyle=0" parent="1" vertex="1">
          <mxGeometry x="896" y="1200" width="30" height="50" as="geometry" />
        </mxCell>
        <mxCell id="bYUfwhUWtX8G-qfTAnMk-216" value="" style="endArrow=none;html=1;rounded=0;fontSize=27;fontStyle=0;startArrow=none;" parent="1" target="bYUfwhUWtX8G-qfTAnMk-211" edge="1">
          <mxGeometry width="50" height="50" relative="1" as="geometry">
            <mxPoint x="710" y="1225" as="sourcePoint" />
            <mxPoint x="1150" y="1225" as="targetPoint" />
          </mxGeometry>
        </mxCell>
        <mxCell id="bYUfwhUWtX8G-qfTAnMk-217" value="||" style="edgeLabel;html=1;align=center;verticalAlign=middle;resizable=0;points=[];fontSize=27;fontStyle=0" parent="bYUfwhUWtX8G-qfTAnMk-216" vertex="1" connectable="0">
          <mxGeometry x="-0.5443" y="3" relative="1" as="geometry">
            <mxPoint x="-14" y="3" as="offset" />
          </mxGeometry>
        </mxCell>
        <mxCell id="bYUfwhUWtX8G-qfTAnMk-219" value="" style="endArrow=none;html=1;rounded=0;fontSize=27;fontStyle=0;startArrow=none;" parent="1" source="bYUfwhUWtX8G-qfTAnMk-223" edge="1">
          <mxGeometry width="50" height="50" relative="1" as="geometry">
            <mxPoint x="70" y="1370" as="sourcePoint" />
            <mxPoint x="590" y="1369.9999999999998" as="targetPoint" />
          </mxGeometry>
        </mxCell>
        <mxCell id="bYUfwhUWtX8G-qfTAnMk-220" value="9" style="text;html=1;align=center;verticalAlign=middle;resizable=0;points=[];autosize=1;strokeColor=none;fillColor=none;fontSize=27;fontStyle=0" parent="1" vertex="1">
          <mxGeometry x="20" y="1315" width="40" height="50" as="geometry" />
        </mxCell>
        <mxCell id="bYUfwhUWtX8G-qfTAnMk-221" value="&lt;span style=&quot;font-size: 27px;&quot;&gt;]&lt;/span&gt;" style="text;html=1;align=center;verticalAlign=middle;resizable=0;points=[];autosize=1;strokeColor=none;fillColor=none;fontSize=27;fontStyle=0" parent="1" vertex="1">
          <mxGeometry x="175" y="1345" width="30" height="50" as="geometry" />
        </mxCell>
        <mxCell id="bYUfwhUWtX8G-qfTAnMk-222" value="|" style="text;html=1;align=center;verticalAlign=middle;resizable=0;points=[];autosize=1;strokeColor=none;fillColor=none;fontSize=27;fontStyle=0" parent="1" vertex="1">
          <mxGeometry x="345" y="1345" width="30" height="50" as="geometry" />
        </mxCell>
        <mxCell id="bYUfwhUWtX8G-qfTAnMk-223" value="&lt;span style=&quot;font-size: 27px;&quot;&gt;[&lt;/span&gt;" style="text;html=1;align=center;verticalAlign=middle;resizable=0;points=[];autosize=1;strokeColor=none;fillColor=none;fontSize=27;fontStyle=0" parent="1" vertex="1">
          <mxGeometry x="495" y="1345" width="30" height="50" as="geometry" />
        </mxCell>
        <mxCell id="bYUfwhUWtX8G-qfTAnMk-224" value="" style="endArrow=none;html=1;rounded=0;fontSize=27;fontStyle=0;startArrow=none;" parent="1" target="bYUfwhUWtX8G-qfTAnMk-223" edge="1">
          <mxGeometry width="50" height="50" relative="1" as="geometry">
            <mxPoint x="70" y="1369.9999999999998" as="sourcePoint" />
            <mxPoint x="590" y="1369.9999999999998" as="targetPoint" />
          </mxGeometry>
        </mxCell>
        <mxCell id="bYUfwhUWtX8G-qfTAnMk-225" value="||" style="edgeLabel;html=1;align=center;verticalAlign=middle;resizable=0;points=[];fontSize=27;fontStyle=0" parent="bYUfwhUWtX8G-qfTAnMk-224" vertex="1" connectable="0">
          <mxGeometry x="-0.5443" y="3" relative="1" as="geometry">
            <mxPoint x="123" y="3" as="offset" />
          </mxGeometry>
        </mxCell>
        <mxCell id="bYUfwhUWtX8G-qfTAnMk-226" value="" style="shape=singleArrow;whiteSpace=wrap;html=1;arrowWidth=0.4;arrowSize=0.4;fontSize=27;rotation=90;fontStyle=0" parent="1" vertex="1">
          <mxGeometry x="580" y="1430" width="60" height="60" as="geometry" />
        </mxCell>
        <mxCell id="bYUfwhUWtX8G-qfTAnMk-227" value="Shift the transmitting window" style="text;html=1;align=center;verticalAlign=middle;resizable=0;points=[];autosize=1;strokeColor=none;fillColor=none;fontSize=27;fontStyle=0" parent="1" vertex="1">
          <mxGeometry x="695" y="1345" width="370" height="50" as="geometry" />
        </mxCell>
        <mxCell id="bYUfwhUWtX8G-qfTAnMk-234" value="" style="endArrow=none;html=1;rounded=0;fontSize=27;fontStyle=0;startArrow=none;" parent="1" source="bYUfwhUWtX8G-qfTAnMk-236" edge="1">
          <mxGeometry width="50" height="50" relative="1" as="geometry">
            <mxPoint x="60" y="1580" as="sourcePoint" />
            <mxPoint x="580" y="1580" as="targetPoint" />
          </mxGeometry>
        </mxCell>
        <mxCell id="bYUfwhUWtX8G-qfTAnMk-235" value="&lt;span style=&quot;font-size: 27px;&quot;&gt;]&lt;/span&gt;" style="text;html=1;align=center;verticalAlign=middle;resizable=0;points=[];autosize=1;strokeColor=none;fillColor=none;fontSize=27;fontStyle=0" parent="1" vertex="1">
          <mxGeometry x="295" y="1555" width="30" height="50" as="geometry" />
        </mxCell>
        <mxCell id="bYUfwhUWtX8G-qfTAnMk-237" value="&lt;span style=&quot;font-size: 27px;&quot;&gt;[&lt;/span&gt;" style="text;html=1;align=center;verticalAlign=middle;resizable=0;points=[];autosize=1;strokeColor=none;fillColor=none;fontSize=27;fontStyle=0" parent="1" vertex="1">
          <mxGeometry x="45" y="1555" width="30" height="50" as="geometry" />
        </mxCell>
        <mxCell id="bYUfwhUWtX8G-qfTAnMk-238" value="" style="endArrow=none;html=1;rounded=0;fontSize=27;fontStyle=0;startArrow=none;" parent="1" target="bYUfwhUWtX8G-qfTAnMk-237" edge="1">
          <mxGeometry width="50" height="50" relative="1" as="geometry">
            <mxPoint x="60" y="1580" as="sourcePoint" />
            <mxPoint x="580" y="1579.9999999999998" as="targetPoint" />
          </mxGeometry>
        </mxCell>
        <mxCell id="bYUfwhUWtX8G-qfTAnMk-239" value="||" style="edgeLabel;html=1;align=center;verticalAlign=middle;resizable=0;points=[];fontSize=27;fontStyle=0" parent="bYUfwhUWtX8G-qfTAnMk-238" vertex="1" connectable="0">
          <mxGeometry x="-0.5443" y="3" relative="1" as="geometry">
            <mxPoint x="238" y="3" as="offset" />
          </mxGeometry>
        </mxCell>
        <mxCell id="bYUfwhUWtX8G-qfTAnMk-236" value="|" style="text;html=1;align=center;verticalAlign=middle;resizable=0;points=[];autosize=1;strokeColor=none;fillColor=none;fontSize=27;fontStyle=0" parent="1" vertex="1">
          <mxGeometry x="495" y="1550" width="30" height="50" as="geometry" />
        </mxCell>
        <mxCell id="bYUfwhUWtX8G-qfTAnMk-242" value="" style="endArrow=none;html=1;rounded=0;fontSize=27;fontStyle=0;startArrow=none;" parent="1" source="bYUfwhUWtX8G-qfTAnMk-237" target="bYUfwhUWtX8G-qfTAnMk-236" edge="1">
          <mxGeometry width="50" height="50" relative="1" as="geometry">
            <mxPoint x="70" y="1580" as="sourcePoint" />
            <mxPoint x="580" y="1580" as="targetPoint" />
          </mxGeometry>
        </mxCell>
        <mxCell id="bYUfwhUWtX8G-qfTAnMk-243" value="Set the corresponding bit to 1" style="text;html=1;align=center;verticalAlign=middle;resizable=0;points=[];autosize=1;strokeColor=none;fillColor=none;fontSize=27;fontStyle=0" parent="1" vertex="1">
          <mxGeometry x="640" y="1565" width="380" height="50" as="geometry" />
        </mxCell>
        <mxCell id="bYUfwhUWtX8G-qfTAnMk-244" value="" style="endArrow=none;html=1;rounded=0;fontSize=27;fontStyle=0;startArrow=none;" parent="1" source="bYUfwhUWtX8G-qfTAnMk-248" edge="1">
          <mxGeometry width="50" height="50" relative="1" as="geometry">
            <mxPoint x="70" y="1710" as="sourcePoint" />
            <mxPoint x="590" y="1710" as="targetPoint" />
          </mxGeometry>
        </mxCell>
        <mxCell id="bYUfwhUWtX8G-qfTAnMk-245" value="10" style="text;html=1;align=center;verticalAlign=middle;resizable=0;points=[];autosize=1;strokeColor=none;fillColor=none;fontSize=27;fontStyle=0" parent="1" vertex="1">
          <mxGeometry x="15" y="1655" width="50" height="50" as="geometry" />
        </mxCell>
        <mxCell id="bYUfwhUWtX8G-qfTAnMk-246" value="&lt;span style=&quot;font-size: 27px;&quot;&gt;]&lt;/span&gt;" style="text;html=1;align=center;verticalAlign=middle;resizable=0;points=[];autosize=1;strokeColor=none;fillColor=none;fontSize=27;fontStyle=0" parent="1" vertex="1">
          <mxGeometry x="175" y="1685" width="30" height="50" as="geometry" />
        </mxCell>
        <mxCell id="bYUfwhUWtX8G-qfTAnMk-247" value="|" style="text;html=1;align=center;verticalAlign=middle;resizable=0;points=[];autosize=1;strokeColor=none;fillColor=none;fontSize=27;fontStyle=0" parent="1" vertex="1">
          <mxGeometry x="345" y="1685" width="30" height="50" as="geometry" />
        </mxCell>
        <mxCell id="bYUfwhUWtX8G-qfTAnMk-248" value="&lt;span style=&quot;font-size: 27px;&quot;&gt;[&lt;/span&gt;" style="text;html=1;align=center;verticalAlign=middle;resizable=0;points=[];autosize=1;strokeColor=none;fillColor=none;fontSize=27;fontStyle=0" parent="1" vertex="1">
          <mxGeometry x="495" y="1685" width="30" height="50" as="geometry" />
        </mxCell>
        <mxCell id="bYUfwhUWtX8G-qfTAnMk-249" value="" style="endArrow=none;html=1;rounded=0;fontSize=27;fontStyle=0;startArrow=none;" parent="1" target="bYUfwhUWtX8G-qfTAnMk-248" edge="1">
          <mxGeometry width="50" height="50" relative="1" as="geometry">
            <mxPoint x="70" y="1710" as="sourcePoint" />
            <mxPoint x="590" y="1709.9999999999998" as="targetPoint" />
          </mxGeometry>
        </mxCell>
        <mxCell id="bYUfwhUWtX8G-qfTAnMk-250" value="||" style="edgeLabel;html=1;align=center;verticalAlign=middle;resizable=0;points=[];fontSize=27;fontStyle=0" parent="bYUfwhUWtX8G-qfTAnMk-249" vertex="1" connectable="0">
          <mxGeometry x="-0.5443" y="3" relative="1" as="geometry">
            <mxPoint x="263" y="3" as="offset" />
          </mxGeometry>
        </mxCell>
        <mxCell id="bYUfwhUWtX8G-qfTAnMk-251" value="Ignore the frame" style="text;html=1;align=center;verticalAlign=middle;resizable=0;points=[];autosize=1;strokeColor=none;fillColor=none;fontSize=27;fontStyle=0" parent="1" vertex="1">
          <mxGeometry x="720" y="1690" width="220" height="50" as="geometry" />
        </mxCell>
        <mxCell id="nUjo2cxQV714xwKkgoZf-1" value="&lt;font style=&quot;font-size: 27px;&quot;&gt;[&amp;nbsp; &amp;nbsp; &amp;nbsp; &amp;nbsp; &amp;nbsp; &amp;nbsp; &amp;nbsp; &amp;nbsp; &amp;nbsp; &amp;nbsp; Window Start&lt;/font&gt;" style="text;html=1;align=left;verticalAlign=middle;resizable=0;points=[];autosize=1;strokeColor=none;fillColor=none;fontSize=27;fontStyle=0" vertex="1" parent="1">
          <mxGeometry x="1495" y="140" width="340" height="50" as="geometry" />
        </mxCell>
        <mxCell id="nUjo2cxQV714xwKkgoZf-3" value="]&amp;nbsp; &amp;nbsp; &amp;nbsp; &amp;nbsp; &amp;nbsp; &amp;nbsp; &amp;nbsp; &amp;nbsp; &amp;nbsp; &amp;nbsp; Window End (SSN+ bitmapSize)" style="text;html=1;align=left;verticalAlign=middle;resizable=0;points=[];autosize=1;strokeColor=none;fillColor=none;fontSize=27;fontStyle=0" vertex="1" parent="1">
          <mxGeometry x="1500" y="210" width="570" height="50" as="geometry" />
        </mxCell>
        <mxCell id="nUjo2cxQV714xwKkgoZf-4" value="&lt;div style=&quot;text-align: left; font-size: 27px;&quot;&gt;&lt;span style=&quot;background-color: initial; font-size: 27px;&quot;&gt;|&amp;nbsp; &amp;nbsp; &amp;nbsp; &amp;nbsp; &amp;nbsp; &amp;nbsp; &amp;nbsp; &amp;nbsp; &amp;nbsp; &amp;nbsp; SSN+2&lt;/span&gt;&lt;sup style=&quot;background-color: initial; font-size: 27px;&quot;&gt;11&lt;/sup&gt;&lt;br style=&quot;font-size: 27px;&quot;&gt;&lt;/div&gt;" style="text;html=1;align=left;verticalAlign=middle;resizable=0;points=[];autosize=1;strokeColor=none;fillColor=none;fontSize=27;fontStyle=0" vertex="1" parent="1">
          <mxGeometry x="1500" y="280" width="290" height="60" as="geometry" />
        </mxCell>
        <mxCell id="nUjo2cxQV714xwKkgoZf-5" value="&lt;div style=&quot;text-align: left; font-size: 27px;&quot;&gt;&lt;span style=&quot;background-color: initial; font-size: 27px;&quot;&gt;||&amp;nbsp; &amp;nbsp; &amp;nbsp; &amp;nbsp; &amp;nbsp; &amp;nbsp; &amp;nbsp; &amp;nbsp; &amp;nbsp; &amp;nbsp;Received Sequence Number&lt;/span&gt;&lt;br style=&quot;font-size: 27px;&quot;&gt;&lt;/div&gt;" style="text;html=1;align=left;verticalAlign=middle;resizable=0;points=[];autosize=1;strokeColor=none;fillColor=none;fontSize=27;fontStyle=0" vertex="1" parent="1">
          <mxGeometry x="1500" y="375" width="530" height="50" as="geometry" />
        </mxCell>
      </root>
    </mxGraphModel>
  </diagram>
</mxfile>
